<?xml version="1.0" encoding="UTF-8" standalone="no"?>
<!-- Created with Inkscape (http://www.inkscape.org/) -->

<svg
   width="228.939mm"
   height="228.939mm"
   viewBox="0 0 228.939 228.939"
   version="1.1"
   id="svg27571"
   xmlns="http://www.w3.org/2000/svg"
   xmlns:svg="http://www.w3.org/2000/svg">
  <defs
     id="defs27568" />
  <g
     id="layer1"
     transform="translate(25.62355,-71.648933)">
    <path
       style="color:#000000;-inkscape-font-specification:'Glacial Indifference Bold';fill:none;fill-opacity:1;stroke-width:3.53849;-inkscape-stroke:none"
       d="m 88.8472,142.52461 v 32.2468 l -32.0876,89.9874 H 27.819 l 49.6125,-122.2342 z"
       id="path11741-2-9-4-7-6" />
    <path
       id="path11743-9-3-5-5-0"
       style="color:#000000;-inkscape-font-specification:'Glacial Indifference Bold';fill:#f2f2f2;fill-opacity:1;stroke-width:3.53849;-inkscape-stroke:none"
       d="M 76.2374,140.75731 25.1911,266.52432 H 58.0048 L 90.619,175.07771 v -0.61624 h -3.5382 v 0 L 55.5106,262.98608 H 30.4446 L 78.6219,144.29561 h 8.4589 v 0 h 3.5382 v -3.53828 h -1.77 z" />
    <path
       id="path8248-6-0-29-63-3-0-6-6"
       style="font-weight:bold;font-size:192px;line-height:1.25;font-family:'Glacial Indifference';-inkscape-font-specification:'Glacial Indifference Bold';letter-spacing:0px;word-spacing:0px;white-space:pre;fill:#f2f2f2;fill-opacity:1;stroke-width:1.01304"
       d="m 88.377258,105.71431 c -11.563615,-0.0794 -23.179352,2.70928 -33.570333,8.70853 -31.667979,18.28345 -43.200373,61.32705 -24.916871,92.99485 14.832542,25.6908 45.959712,38.12891 74.089416,32.14737 L 95.016182,213.08297 H 67.495547 a 2.7291315,2.7291315 0 0 1 -2.36167,-1.36427 L 43.786764,174.74474 a 2.7291315,2.7291315 0 0 1 0,-2.72955 l 21.347113,-36.97398 a 2.7291315,2.7291315 0 0 1 1.429808,-1.19992 2.7291315,2.7291315 0 0 1 0.934773,-0.16536 h 42.694492 a 2.7291315,2.7291315 0 0 1 2.36273,1.36581 l 21.34711,36.97448 a 2.7291315,2.7291315 0 0 1 0,2.72749 l -12.07426,20.91343 11.74247,28.93158 C 156.92339,203.70174 163.85203,167.1412 147.80267,139.34275 135.5186,118.06596 112.0572,105.87746 88.378845,105.71484 Z" />
    <path
       id="path12186-5-7-93-6-6"
       style="color:#000000;-inkscape-font-specification:'Glacial Indifference Bold';fill:#f2f2f2;fill-opacity:1;stroke-width:3.53849;-inkscape-stroke:none"
       d="m 87.0808,140.75731 v 1.76823 1.77007 h 3.5382 v 0 h 8.4516 L 147.248,262.98608 H 122.182 L 90.619,174.46147 v 0 h -3.5382 v 0.61623 l 32.6072,91.44661 h 32.8135 L 101.4552,140.75732 Z" />
  </g>
</svg>
